<svg xmlns="http://www.w3.org/2000/svg" xmlns:xlink="http://www.w3.org/1999/xlink" viewBox="0 0 2000 2000" width="393" height="393" preserveAspectRatio="xMidYMid meet" style="width: 100%; height: 100%; transform: translate3d(0px, 0px, 0px); content-visibility: visible; background-color: rgb(255, 255, 255);"><defs><clipPath id="__lottie_element_2"><rect width="2000" height="2000" x="0" y="0"/></clipPath></defs><g clip-path="url(#__lottie_element_2)"><g transform="matrix(11.32999324798584,-0.011852624826133251,0.011852624826133251,11.32999324798584,1000.3289794921875,936.0598754882812)" opacity="1" style="display: block;"><g opacity="1" transform="matrix(1,0,0,1,0,0)"><g opacity="1" transform="matrix(1,0,0,1,0,0)"><path fill="rgb(205,252,215)" fill-opacity="1" d=" M56.292999267578125,-54.775001525878906 C55.27000045776367,-54.926998138427734 54.24300003051758,-54.72600173950195 53.349998474121094,-54.185001373291016 C53.349998474121094,-54.185001373291016 53.06399917602539,-54.01100158691406 53.06399917602539,-54.01100158691406 C53.06399917602539,-54.01100158691406 53.349998474121094,-54.180999755859375 53.349998474121094,-54.180999755859375 C54.24700164794922,-54.72200012207031 55.275001525878906,-54.92300033569336 56.29800033569336,-54.770999908447266 C56.29800033569336,-54.770999908447266 56.292999267578125,-54.775001525878906 56.292999267578125,-54.775001525878906z"/></g><g opacity="1" transform="matrix(1,0,0,1,0,0)"><path fill="rgb(205,252,215)" fill-opacity="1" d=" M-35.4739990234375,-35.952999114990234 C-35.29100036621094,-35.939998626708984 -34.91600036621094,-35.974998474121094 -34.402000427246094,-36.047000885009766 C-34.91600036621094,-35.974998474121094 -35.2869987487793,-35.939998626708984 -35.4739990234375,-35.952999114990234 C-36.99700164794922,-36.07400131225586 -40.87900161743164,-37.69599914550781 -42.18299865722656,-38.2599983215332 C-40.874000549316406,-37.69599914550781 -36.99700164794922,-36.07400131225586 -35.4739990234375,-35.952999114990234z"/></g><g opacity="1" transform="matrix(1,0,0,1,0,0)"><path fill="rgb(205,252,215)" fill-opacity="1" d=" M-53.349998474121094,-54.18600082397461 C-53.349998474121094,-54.18600082397461 -52.433998107910156,-53.63100051879883 -52.433998107910156,-53.63100051879883 C-52.433998107910156,-53.63100051879883 -53.354000091552734,-54.18600082397461 -53.354000091552734,-54.18600082397461 C-54.22100067138672,-54.70899963378906 -55.20800018310547,-54.90999984741211 -56.19499969482422,-54.78499984741211 C-55.21200180053711,-54.90999984741211 -54.22100067138672,-54.70399856567383 -53.354000091552734,-54.180999755859375 C-53.354000091552734,-54.180999755859375 -53.349998474121094,-54.18600082397461 -53.349998474121094,-54.18600082397461z"/></g><g opacity="1" transform="matrix(1,0,0,1,0,0)"><path fill="rgb(205,252,215)" fill-opacity="1" d=" M39.94599914550781,-43.555999755859375 C39.95000076293945,-42.85900115966797 40.119998931884766,-42.15299987792969 40.4640007019043,-41.5 C40.1150016784668,-42.15700149536133 39.95000076293945,-42.85900115966797 39.941001892089844,-43.555999755859375 C39.941001892089844,-43.555999755859375 39.94599914550781,-43.555999755859375 39.94599914550781,-43.555999755859375z"/></g><g opacity="1" transform="matrix(1,0,0,1,0,0)"><path fill="rgb(205,252,215)" fill-opacity="1" d=" M-34.84000015258789,42.92900085449219 C-34.7859992980957,42.9739990234375 -34.733001708984375,43.013999938964844 -34.67900085449219,43.058998107910156 C-34.733001708984375,43.013999938964844 -34.79100036621094,42.9739990234375 -34.84000015258789,42.92900085449219z"/></g><g opacity="1" transform="matrix(1,0,0,1,0,0)"><path fill="rgb(205,252,215)" fill-opacity="1" d=" M-59.45100021362305,9.9350004196167 C-62.88100051879883,14.038000106811523 -61.29100036621094,18.68199920654297 -58.32099914550781,21.297000885009766 C-58.111000061035156,21.479999542236328 -57.887001037597656,21.659000396728516 -57.66400146484375,21.823999404907227 C-57.891998291015625,21.659000396728516 -58.111000061035156,21.479999542236328 -58.32099914550781,21.297000885009766 C-61.29100036621094,18.68199920654297 -62.87699890136719,14.038000106811523 -59.45100021362305,9.9350004196167z"/></g><g opacity="1" transform="matrix(1,0,0,1,0,0)"><path fill="rgb(205,252,215)" fill-opacity="1" d=" M-50.16899871826172,23.6200008392334 C-52.58599853515625,27.63800048828125 -51.14799880981445,31.740999221801758 -48.48099899291992,34.0880012512207 C-47.74399948120117,34.736000061035156 -46.922000885009766,35.24100112915039 -46.060001373291016,35.60300064086914 C-46.926998138427734,35.24100112915039 -47.74800109863281,34.736000061035156 -48.48500061035156,34.0880012512207 C-51.152000427246094,31.740999221801758 -52.58599853515625,27.64299964904785 -50.17399978637695,23.6200008392334 C-50.17399978637695,23.6200008392334 -50.16899871826172,23.6200008392334 -50.16899871826172,23.6200008392334z"/></g><g opacity="1" transform="matrix(1,0,0,1,0,0)"><path fill="rgb(205,252,215)" fill-opacity="1" d=" M-43.683998107910156,36.20800018310547 C-43.433998107910156,36.22999954223633 -43.1879997253418,36.24399948120117 -42.9379997253418,36.24399948120117 C-42.9379997253418,36.24399948120117 -42.92399978637695,36.24399948120117 -42.92399978637695,36.24399948120117 C-42.92399978637695,36.24399948120117 -42.94200134277344,36.24399948120117 -42.94200134277344,36.24399948120117 C-43.19200134277344,36.24399948120117 -43.4379997253418,36.22999954223633 -43.6879997253418,36.20800018310547 C-43.6879997253418,36.20800018310547 -43.683998107910156,36.20800018310547 -43.683998107910156,36.20800018310547z"/></g><g opacity="1" transform="matrix(1,0,0,1,0,0)"><path fill="rgb(205,252,215)" fill-opacity="1" d=" M-24.347999572753906,44.11000061035156 C-24.517000198364258,45.084999084472656 -24.490999221801758,46.082000732421875 -24.257999420166016,47.07400131225586 C-24.490999221801758,46.07699966430664 -24.52199935913086,45.08000183105469 -24.347999572753906,44.11000061035156z"/></g><g opacity="1" transform="matrix(1,0,0,1,0,0)"><path fill="rgb(205,252,215)" fill-opacity="1" d=" M36.29999923706055,-36.104000091552734 C36.89899826049805,-36.24700164794922 37.62300109863281,-36.47999954223633 38.36399841308594,-36.74399948120117 C37.61800003051758,-36.47999954223633 36.89899826049805,-36.24700164794922 36.29999923706055,-36.104000091552734z"/></g><g opacity="1" transform="matrix(1,0,0,1,0,0)"><path fill="rgb(205,252,215)" fill-opacity="1" d=" M-24.226999282836914,43.25600051879883 C-24.976999282836914,43.849998474121094 -25.746000289916992,44.28799819946289 -26.523000717163086,44.5880012512207 C-25.746000289916992,44.28799819946289 -24.972999572753906,43.85499954223633 -24.226999282836914,43.25600051879883z"/></g><g opacity="1" transform="matrix(1,0,0,1,0,0)"><path fill="rgb(205,252,215)" fill-opacity="1" d=" M28.86400032043457,-37.04800033569336 C30.909000396728516,-36.645999908447266 32.709999084472656,-36.305999755859375 33.93299865722656,-36.11800003051758 C32.709999084472656,-36.31100082397461 30.909000396728516,-36.650001525878906 28.86400032043457,-37.04800033569336z"/></g><g opacity="1" transform="matrix(1,0,0,1,0,0)"><path fill="rgb(205,252,215)" fill-opacity="1" d=" M4.453999996185303,-40.185001373291016 C4.480999946594238,-40.185001373291016 4.504000186920166,-40.185001373291016 4.531000137329102,-40.189998626708984 C4.504000186920166,-40.189998626708984 4.480999946594238,-40.189998626708984 4.453000068664551,-40.185001373291016 C4.453000068664551,-40.185001373291016 4.453999996185303,-40.185001373291016 4.453999996185303,-40.185001373291016z"/></g><g opacity="1" transform="matrix(1,0,0,1,0,0)"><path fill="rgb(205,252,215)" fill-opacity="1" d=" M-50.10200119018555,23.14699935913086 C-50.755001068115234,23.382999420166016 -51.41600036621094,23.52199935913086 -52.071998596191406,23.566999435424805 C-51.41600036621094,23.52199935913086 -50.755001068115234,23.38800048828125 -50.10200119018555,23.14699935913086z"/></g><g opacity="1" transform="matrix(1,0,0,1,0,0)"><path fill="rgb(205,252,215)" fill-opacity="1" d=" M70.29199981689453,9.70199966430664 C70.54199981689453,9.70199966430664 70.78800201416016,9.675000190734863 71.03299713134766,9.630000114440918 C70.78800201416016,9.670999526977539 70.54199981689453,9.70199966430664 70.29199981689453,9.70199966430664z"/></g><g opacity="1" transform="matrix(1,0,0,1,0,0)"><path fill="rgb(25,58,61)" fill-opacity="1" d=" M-27.44700050354004,-6.84499979019165 C-27.44700050354004,-6.84499979019165 -19.357999801635742,-4.499000072479248 -11.814000129699707,-8.074000358581543 C-4.269999980926514,-11.649999618530273 1.7599999904632568,-20.94700050354004 1.7599999904632568,-20.94700050354004 C1.7599999904632568,-20.94700050354004 -1.062999963760376,-22.92300033569336 -1.062999963760376,-22.92300033569336 C-1.062999963760376,-22.92300033569336 -7.079999923706055,-21.801000595092773 -7.079999923706055,-21.801000595092773 C-7.079999923706055,-21.801000595092773 -14.409000396728516,-10.805000305175781 -20.496999740600586,-8.60200023651123 C-26.584999084472656,-6.3979997634887695 -27.44700050354004,-6.84499979019165 -27.44700050354004,-6.84499979019165z"/></g><g opacity="1" transform="matrix(1,0,0,1,0,0)"><path fill="rgb(25,58,61)" fill-opacity="1" d=" M61.582000732421875,-1.6469999551773071 C61.582000732421875,-1.6469999551773071 64.4489974975586,3.760999917984009 64.4489974975586,3.760999917984009 C61.16600036621094,7.60099983215332 55.85499954223633,11.79800033569336 54.37699890136719,12.942000389099121 C53.854000091552734,12.088000297546387 53.215999603271484,11.234999656677246 52.44300079345703,10.390000343322754 C51.33100128173828,9.173999786376953 49.95899963378906,8.057000160217285 48.374000549316406,7.068999767303467 C48.374000549316406,7.068999767303467 28.010000228881836,-5.633999824523926 28.010000228881836,-5.633999824523926 C28.743000030517578,-5.495999813079834 29.555999755859375,-5.3979997634887695 30.391000747680664,-5.3979997634887695 C31.22599983215332,-5.3979997634887695 32.05699920654297,-5.486999988555908 32.875,-5.728000164031982 C33.111000061035156,-5.795000076293945 33.244998931884766,-6.046000003814697 33.178001403808594,-6.2829999923706055 C33.111000061035156,-6.519000053405762 32.86600112915039,-6.6539998054504395 32.624000549316406,-6.585999965667725 C29.358999252319336,-5.630000114440918 25.420000076293945,-7.296999931335449 25.14699935913086,-7.413000106811523 C25.14699935913086,-7.413000106811523 1.5049999952316284,-22.159000396728516 1.5049999952316284,-22.159000396728516 C7.138000011444092,-19.812999725341797 29.006000518798828,-10.748000144958496 43.17900085449219,-5.590000152587891 C55.904998779296875,-0.9589999914169312 60.26900100708008,-1.2760000228881836 61.582000732421875,-1.6469999551773071 C61.582000732421875,-1.6469999551773071 61.582000732421875,-1.6469999551773071 61.582000732421875,-1.6469999551773071z"/></g><g opacity="1" transform="matrix(1,0,0,1,0,0)"><path fill="rgb(205,252,215)" fill-opacity="1" d=" M42.79999923706055,-38.040000915527344 C42.79999923706055,-38.040000915527344 37.439998626708984,-35.65800094604492 35.50600051879883,-35.50600051879883 C33.571998596191406,-35.354000091552734 6.436999797821045,-37.987998962402344 -3.257999897003174,-33.58599853515625 C-28.1560001373291,-22.2810001373291 -58.90399932861328,9.809000015258789 -58.90399932861328,9.809000015258789 C-63.762001037597656,16.440000534057617 -57.06700134277344,25.384000778198242 -48.74300003051758,22.2549991607666 C-55.154998779296875,29.947999954223633 -45.75600051879883,40.770999908447266 -36.67599868774414,33.143001556396484 C-39.518001556396484,44.874000549316406 -27.849000930786133,46.50299835205078 -23.54400062561035,42.4630012512207 C-25.770000457763672,49.54600143432617 -17.43600082397461,55.29499816894531 -9.354000091552734,50.03799819946289 C-5.364999771118164,47.444000244140625 33.3390007019043,26.097000122070312 52.10300064086914,13.975000381469727 C56.07099914550781,11.41100025177002 61.112998962402344,8.446000099182129 64.98100280761719,3.8239998817443848"/><path stroke-linecap="round" stroke-linejoin="round" fill-opacity="0" stroke="rgb(25,58,61)" stroke-opacity="1" stroke-width="1" d=" M42.79999923706055,-38.040000915527344 C42.79999923706055,-38.040000915527344 37.439998626708984,-35.65800094604492 35.50600051879883,-35.50600051879883 C33.571998596191406,-35.354000091552734 6.436999797821045,-37.987998962402344 -3.257999897003174,-33.58599853515625 C-28.1560001373291,-22.2810001373291 -58.90399932861328,9.809000015258789 -58.90399932861328,9.809000015258789 C-63.762001037597656,16.440000534057617 -57.06700134277344,25.384000778198242 -48.74300003051758,22.2549991607666 C-55.154998779296875,29.947999954223633 -45.75600051879883,40.770999908447266 -36.67599868774414,33.143001556396484 C-39.518001556396484,44.874000549316406 -27.849000930786133,46.50299835205078 -23.54400062561035,42.4630012512207 C-25.770000457763672,49.54600143432617 -17.43600082397461,55.29499816894531 -9.354000091552734,50.03799819946289 C-5.364999771118164,47.444000244140625 33.3390007019043,26.097000122070312 52.10300064086914,13.975000381469727 C56.07099914550781,11.41100025177002 61.112998962402344,8.446000099182129 64.98100280761719,3.8239998817443848"/></g><g opacity="1" transform="matrix(1,0,0,1,0,0)"><path fill="rgb(178,223,192)" fill-opacity="1" d=" M63.28099822998047,-1.7419999837875366 C62.83100128173828,-1.621999979019165 64.66100311279297,1.9210000038146973 64.66100311279297,3.927999973297119 C60.678001403808594,10.852999687194824 -12.194999694824219,52.01300048828125 -13.628999710083008,51.59000015258789 C-53.25299835205078,39.90399932861328 0.45500001311302185,-17.94700050354004 -0.11800000071525574,-22.447999954223633 C17.802000045776367,-12.807999610900879 51.14899826049805,-3.0230000019073486 63.28099822998047,-1.7419999837875366 C63.28099822998047,-1.7419999837875366 63.28099822998047,-1.7419999837875366 63.28099822998047,-1.7419999837875366z"/></g><g opacity="1" transform="matrix(1,0,0,1,0,0)"><path stroke-linecap="round" stroke-linejoin="round" fill-opacity="0" stroke="rgb(25,58,61)" stroke-opacity="1" stroke-width="1" d=" M42.79999923706055,-38.040000915527344 C42.79999923706055,-38.040000915527344 37.439998626708984,-35.65800094604492 35.50600051879883,-35.50600051879883 C33.571998596191406,-35.354000091552734 6.436999797821045,-37.987998962402344 -3.257999897003174,-33.58599853515625 C-28.1560001373291,-22.2810001373291 -58.90399932861328,9.809000015258789 -58.90399932861328,9.809000015258789 C-63.762001037597656,16.440000534057617 -57.06700134277344,25.384000778198242 -48.74300003051758,22.2549991607666 C-55.154998779296875,29.947999954223633 -45.75600051879883,40.770999908447266 -36.67599868774414,33.143001556396484 C-39.518001556396484,44.874000549316406 -27.849000930786133,46.50299835205078 -23.54400062561035,42.4630012512207 C-25.770000457763672,49.54600143432617 -17.43600082397461,55.29499816894531 -9.354000091552734,50.03799819946289 C-5.364999771118164,47.444000244140625 33.3390007019043,26.097000122070312 52.10300064086914,13.975000381469727 C56.07099914550781,11.41100025177002 61.112998962402344,8.446000099182129 64.98100280761719,3.8239998817443848"/></g></g></g><g transform="matrix(11.32999324798584,0.011852624826133251,-0.011852624826133251,11.32999324798584,999.8839721679688,935.9267578125)" opacity="1" style="display: block;"><g opacity="1" transform="matrix(1,0,0,1,0,0)"><g opacity="1" transform="matrix(1,0,0,1,0,0)"><g opacity="1" transform="matrix(1,0,0,1,0,0)"><path fill="rgb(255,255,255)" fill-opacity="1" d=" M-30.15399932861328,-5.84499979019165 C-38.84000015258789,-4.789000034332275 -45.895999908447266,-8.484000205993652 -47.207000732421875,-17.261999130249023 C-49.53799819946289,-32.87300109863281 -37.67399978637695,-35.19200134277344 -35.96799850463867,-35.0629997253418 C-35.064998626708984,-34.99100112915039 -31.44300079345703,-35.70199966430664 -25.610000610351562,-36.86800003051758 C-19.739999771118164,-38.04399871826172 -13.09000015258789,-39.37099838256836 -10.303000450134277,-39.53200149536133 C-5.2870001792907715,-39.81800079345703 13.477999687194824,-37.02899932861328 15.984000205993652,-35.8489990234375 C18.552000045776367,-34.63800048828125 32.15299987792969,-13.366000175476074 32.40700149536133,-11.3149995803833 C32.500999450683594,-10.581999778747559 31.760000228881836,-9.293999671936035 30.204999923706055,-8.355999946594238 C28.718000411987305,-7.461999893188477 24.600000381469727,-5.835000038146973 18.516000747680664,-10.098999977111816 C9.805999755859375,-16.200000762939453 6.872000217437744,-21.211999893188477 6.729000091552734,-21.23900032043457 C6.729000091552734,-21.23900032043457 0.28299999237060547,-22.917999267578125 0.26100000739097595,-22.92300033569336 C0.23000000417232513,-22.92300033569336 -23.441999435424805,-6.660999774932861 -30.15399932861328,-5.84499979019165 C-30.15399932861328,-5.84499979019165 -30.15399932861328,-5.84499979019165 -30.15399932861328,-5.84499979019165z"/></g><g opacity="1" transform="matrix(1,0,0,1,0,0)"><path fill="rgb(219,223,223)" fill-opacity="1" d=" M-2.6500000953674316,-39.40599822998047 C-2.6500000953674316,-39.40599822998047 -2.803999900817871,-31.812999725341797 2.7320001125335693,-25.878000259399414 C9.680999755859375,-18.42799949645996 27.094999313354492,-7.425000190734863 27.094999313354492,-7.425000190734863 C27.094999313354492,-7.425000190734863 32.87900161743164,-8.140000343322754 32.792999267578125,-10.968999862670898 C32.707000732421875,-13.79800033569336 18.83799934387207,-35.20000076293945 16.214000701904297,-36.729000091552734 C13.59000015258789,-38.257999420166016 -2.6500000953674316,-39.40599822998047 -2.6500000953674316,-39.40599822998047z"/></g><g opacity="1" transform="matrix(1,0,0,1,0,0)"><path stroke-linecap="round" stroke-linejoin="round" fill-opacity="0" stroke="rgb(25,58,61)" stroke-opacity="1" stroke-width="1" d=" M-35.82099914550781,-35.430999755859375 C-33.887001037597656,-35.27899932861328 -15.536999702453613,-39.67599868774414 -10.329999923706055,-39.97600173950195 C-5.117000102996826,-40.275001525878906 13.642999649047852,-37.441001892089844 16.17099952697754,-36.25199890136719 C18.698999404907227,-35.0629997253418 32.54999923706055,-13.755999565124512 32.845001220703125,-11.369000434875488 C33.14400100708008,-8.987000465393066 27.301000595092773,-4.394000053405762 18.368000030517578,-10.652000427246094 C9.4350004196167,-16.90999984741211 6.638999938964844,-21.797000885009766 6.638999938964844,-21.797000885009766 C6.638999938964844,-21.797000885009766 0.23800000548362732,-22.990999221801758 0.23800000548362732,-22.990999221801758"/></g></g><g opacity="1" transform="matrix(1,0,0,1,0,0)"><g opacity="1" transform="matrix(1,0,0,1,0,0)"><path fill="rgb(255,255,255)" fill-opacity="1" d=" M1.3259999752044678,-26.9950008392334 C14.652000427246094,-17.613000869750977 25.69099998474121,-8.227999687194824 41.64799880981445,2.2320001125335693 C44.91699981689453,4.375 50.95600128173828,9.423999786376953 52.117000579833984,10.689000129699707 C60.90800094604492,20.295000076293945 52.58599853515625,31.492000579833984 43.250999450683594,25.72599983215332 C49.81700134277344,33.034000396728516 40.27199935913086,41.07099914550781 31.489999771118164,36.305999755859375 C36.935001373291016,42.88999938964844 27.618000030517578,50.909000396728516 19.43000030517578,46.2869987487793 C22.392000198364258,50.80099868774414 8.71500015258789,60.80500030517578 -8.468000411987305,48.856998443603516 C-16.451000213623047,43.30699920654297 -32.80400085449219,32.36399841308594 -58.82600021362305,9.885000228881836 C-60.8849983215332,8.105999946594238 -64.23899841308594,4.915999889373779 -65.98999786376953,2.828000068664551 C-65.98999786376953,2.828000068664551 -47.23099899291992,-39 -47.23099899291992,-39 C-47.23099899291992,-39 -39.87799835205078,-36.4630012512207 -36.0890007019043,-35.62300109863281"/></g><g opacity="1" transform="matrix(1,0,0,1,0,0)"><path fill="rgb(219,223,223)" fill-opacity="1" d=" M-64.52300262451172,4.453999996185303 C-64.51499938964844,4.224999904632568 -64.50599670410156,3.994999885559082 -64.49400329589844,3.7660000324249268 C-64.49400329589844,3.7660000324249268 -62.698001861572266,0.22100000083446503 -62.698001861572266,0.22100000083446503 C-60.46900177001953,2.5969998836517334 -49.821998596191406,1.5379999876022339 -47.08700180053711,-1.5529999732971191 C-47.08700180053711,-1.5529999732971191 -47.08700180053711,-1.5490000247955322 -47.08700180053711,-1.5490000247955322 C-50.26900100708008,12.001999855041504 -17.25200080871582,45.73400115966797 11.60099983215332,54.111000061035156 C6.468999862670898,55.1879997253418 -0.6349999904632568,54.303001403808594 -8.468999862670898,48.856998443603516 C-16.451000213623047,43.30699920654297 -32.80400085449219,32.36399841308594 -58.82600021362305,9.885000228881836 C-60.400001525878906,8.524999618530273 -62.73099899291992,6.340000152587891 -64.52300262451172,4.453999996185303z"/></g><g opacity="1" transform="matrix(1,0,0,1,0,0)"><path stroke-linecap="round" stroke-linejoin="round" fill-opacity="0" stroke="rgb(25,58,61)" stroke-opacity="1" stroke-width="1" d=" M2.6489999294281006,38.2239990234375 C2.6489999294281006,38.2239990234375 0.21899999678134918,37.051998138427734 0.21899999678134918,37.051998138427734"/></g><g opacity="1" transform="matrix(1,0,0,1,0,0)"><path stroke-linecap="round" stroke-linejoin="round" fill-opacity="0" stroke="rgb(25,58,61)" stroke-opacity="1" stroke-width="1" d=" M19.426000595092773,46.2869987487793 C19.426000595092773,46.2869987487793 4.431000232696533,39.07699966430664 4.431000232696533,39.07699966430664"/></g><g opacity="1" transform="matrix(1,0,0,1,0,0)"><path stroke-linecap="round" stroke-linejoin="round" fill-opacity="0" stroke="rgb(25,58,61)" stroke-opacity="1" stroke-width="1" d=" M31.18600082397461,36.00600051879883 C31.18600082397461,36.00600051879883 9.894000053405762,23.19499969482422 9.894000053405762,23.19499969482422"/></g><g opacity="1" transform="matrix(1,0,0,1,0,0)"><path stroke-linecap="round" stroke-linejoin="round" fill-opacity="0" stroke="rgb(25,58,61)" stroke-opacity="1" stroke-width="1" d=" M21.76099967956543,12.369999885559082 C21.76099967956543,12.369999885559082 19.27400016784668,10.82800006866455 19.27400016784668,10.82800006866455"/></g><g opacity="1" transform="matrix(1,0,0,1,0,0)"><path stroke-linecap="round" stroke-linejoin="round" fill-opacity="0" stroke="rgb(25,58,61)" stroke-opacity="1" stroke-width="1" d=" M43.0989990234375,25.577999114990234 C43.0989990234375,25.577999114990234 23.68199920654297,13.557999610900879 23.68199920654297,13.557999610900879"/></g><g opacity="1" transform="matrix(1,0,0,1,0,0)"><path stroke-linecap="round" stroke-linejoin="round" fill-opacity="0" stroke="rgb(25,58,61)" stroke-opacity="1" stroke-width="1" d=" M-59.04499816894531,-7.395999908447266 C-59.04499816894531,-7.395999908447266 -42.80799865722656,-38.04100036621094 -42.80799865722656,-38.04100036621094 C-42.80799865722656,-38.04100036621094 -37.75299835205078,-35.61000061035156 -35.819000244140625,-35.45800018310547 C-33.88100051879883,-35.31100082397461 -15.114999771118164,-39.680999755859375 -9.902999877929688,-39.97600173950195 C-7.968999862670898,-40.0880012512207 -4.158999919891357,-39.76599884033203 -0.004999999888241291,-39.25600051879883"/></g><g opacity="1" transform="matrix(1,0,0,1,0,0)"><path fill="rgb(255,255,255)" fill-opacity="1" d=" M-59.04499816894531,-7.394999980926514 C-59.04499816894531,-7.394999980926514 -40.861000061035156,-41.709999084472656 -40.861000061035156,-41.709999084472656 C-39.86000061035156,-43.59600067138672 -40.512001037597656,-45.9379997253418 -42.3390007019043,-47.04199981689453 C-42.3390007019043,-47.04199981689453 -53.57699966430664,-53.80099868774414 -53.57699966430664,-53.80099868774414 C-55.551998138427734,-54.9900016784668 -58.119998931884766,-54.27399826049805 -59.20100021362305,-52.236000061035156 C-59.20100021362305,-52.236000061035156 -85.0719985961914,-3.4170000553131104 -85.0719985961914,-3.4170000553131104 C-86.0719985961914,-1.531000018119812 -85.41999816894531,0.8109999895095825 -83.59300231933594,1.9149999618530273 C-83.59300231933594,1.9149999618530273 -72.3550033569336,8.673999786376953 -72.3550033569336,8.673999786376953 C-70.38099670410156,9.86299991607666 -67.81300354003906,9.147000312805176 -66.73200225830078,7.109000205993652 C-66.73200225830078,7.109000205993652 -62.965999603271484,0.0020000000949949026 -62.965999603271484,0.0020000000949949026"/></g><g opacity="1" transform="matrix(1,0,0,1,0,0)"><path fill="rgb(205,252,215)" fill-opacity="1" d=" M-51.513999938964844,-40.44499969482422 C-49.19499969482422,-40.44499969482422 -47.314998626708984,-42.32600021362305 -47.314998626708984,-44.64699935913086 C-47.314998626708984,-46.96799850463867 -49.19499969482422,-48.8489990234375 -51.513999938964844,-48.8489990234375 C-53.83300018310547,-48.8489990234375 -55.71200180053711,-46.96799850463867 -55.71200180053711,-44.64699935913086 C-55.71200180053711,-42.32699966430664 -53.83300018310547,-40.44499969482422 -51.513999938964844,-40.44499969482422z"/></g><g opacity="1" transform="matrix(1,0,0,1,0,0)"><path stroke-linecap="round" stroke-linejoin="round" fill-opacity="0" stroke="rgb(25,58,61)" stroke-opacity="1" stroke-width="1" d=" M-47.314998626708984,-44.09199905395508 C-47.5880012512207,-42.02299880981445 -49.35599899291992,-40.426998138427734 -51.49599838256836,-40.426998138427734 C-53.827999114990234,-40.426998138427734 -55.71200180053711,-42.31800079345703 -55.71200180053711,-44.64699935913086 C-55.71200180053711,-46.97600173950195 -53.823001861572266,-48.86600112915039 -51.49599838256836,-48.86600112915039 C-50.709999084472656,-48.86600112915039 -49.96799850463867,-48.652000427246094 -49.3390007019043,-48.27199935913086"/></g><g opacity="1" transform="matrix(1,0,0,1,0,0)"><path stroke-linecap="round" stroke-linejoin="round" fill-opacity="0" stroke="rgb(25,58,61)" stroke-opacity="1" stroke-width="1" d=" M-21.5,-33 M2.4709999561309814,-25.386999130249023 C15.79699993133545,-16.0049991607666 25.69099998474121,-8.227999687194824 41.64799880981445,2.2320001125335693 C44.91699981689453,4.375 50.95600128173828,9.423999786376953 52.117000579833984,10.689000129699707 C60.90800094604492,20.295000076293945 52.58599853515625,31.492000579833984 43.250999450683594,25.72599983215332 C49.81700134277344,33.034000396728516 40.27199935913086,41.07099914550781 31.489999771118164,36.305999755859375 C36.935001373291016,42.88999938964844 27.618000030517578,50.909000396728516 19.43000030517578,46.2869987487793 C22.392000198364258,50.80099868774414 8.71500015258789,60.80500030517578 -8.468000411987305,48.856998443603516 C-16.451000213623047,43.30699920654297 -32.80400085449219,32.36399841308594 -58.82600021362305,9.885000228881836 C-60.512001037597656,8.428000450134277 -63.064998626708984,6.026000022888184 -64.89700317382812,4.057000160217285 C-64.89700317382812,4.057000160217285 -42.566001892089844,-37.9119987487793 -42.566001892089844,-37.9119987487793"/></g><g opacity="1" transform="matrix(1,0,0,1,0,0)"><path fill="rgb(219,223,223)" fill-opacity="1" d=" M-83.41500091552734,1.565999984741211 C-83.41500091552734,1.565999984741211 -71.9800033569336,8.444999694824219 -71.9800033569336,8.444999694824219 C-71.11799621582031,8.96399974822998 -70.10900115966797,9.10200023651123 -69.13500213623047,8.829999923706055 C-68.16100311279297,8.562000274658203 -67.36599731445312,7.918000221252441 -66.89299774169922,7.0279998779296875 C-66.89299774169922,7.0279998779296875 -62.96200180053711,-0.3869999945163727 -62.96200180053711,-0.3869999945163727 C-63.85499954223633,-0.08699999749660492 -65.15499877929688,-0.9190000295639038 -67.31700134277344,-1.4420000314712524 C-70.24700164794922,-2.1519999504089355 -79.53800201416016,-7.203000068664551 -80.24800109863281,-8.114999771118164 C-80.66300201416016,-8.647000312805176 -80.94000244140625,-9.527999877929688 -81.09200286865234,-10.166999816894531 C-81.09200286865234,-10.166999816894531 -84.75,-3.260999917984009 -84.75,-3.260999917984009 C-85.65299987792969,-1.5490000247955322 -85.06300354003906,0.5699999928474426 -83.41000366210938,1.562000036239624 C-83.41000366210938,1.562000036239624 -83.41500091552734,1.565999984741211 -83.41500091552734,1.565999984741211z"/></g><g opacity="1" transform="matrix(1,0,0,1,0,0)"><path stroke-linecap="round" stroke-linejoin="round" fill-opacity="0" stroke="rgb(25,58,61)" stroke-opacity="1" stroke-width="1" d=" M-59.04499816894531,-7.394999980926514 C-59.04499816894531,-7.394999980926514 -40.861000061035156,-41.709999084472656 -40.861000061035156,-41.709999084472656 C-39.86000061035156,-43.59600067138672 -40.512001037597656,-45.9379997253418 -42.3390007019043,-47.04199981689453 C-42.3390007019043,-47.04199981689453 -53.57699966430664,-53.80099868774414 -53.57699966430664,-53.80099868774414 C-55.551998138427734,-54.9900016784668 -58.119998931884766,-54.27399826049805 -59.20100021362305,-52.236000061035156 C-59.20100021362305,-52.236000061035156 -85.0719985961914,-3.4170000553131104 -85.0719985961914,-3.4170000553131104 C-86.0719985961914,-1.531000018119812 -85.41999816894531,0.8109999895095825 -83.59300231933594,1.9149999618530273 C-83.59300231933594,1.9149999618530273 -72.3550033569336,8.673999786376953 -72.3550033569336,8.673999786376953 C-70.38099670410156,9.86299991607666 -67.81300354003906,9.147000312805176 -66.73200225830078,7.109000205993652 C-66.73200225830078,7.109000205993652 -62.965999603271484,0.0020000000949949026 -62.965999603271484,0.0020000000949949026"/></g></g></g></g><g transform="matrix(11.32999324798584,-0.011852624826133251,0.011852624826133251,11.32999324798584,1000.3289794921875,936.0598754882812)" opacity="1" style="display: block;"><g opacity="1" transform="matrix(1,0,0,1,0,0)"><g opacity="1" transform="matrix(1,0,0,1,0,0)"><path fill="rgb(205,252,215)" fill-opacity="1" d=" M29.80500030517578,-6.107999801635742 C38.55099868774414,-6.369999885559082 52.4640007019043,-8.484000205993652 53.775001525878906,-17.261999130249023 C56.10599899291992,-32.87300109863281 42.60300064086914,-37.46699905395508 42.60300064086914,-37.46699905395508 C41.33000183105469,-36.91699981689453 37.24300003051758,-35.19200134277344 35.5369987487793,-35.0629997253418 C34.63399887084961,-34.99100112915039 31.011999130249023,-35.70199966430664 25.179000854492188,-36.86800003051758 C19.30900001525879,-38.04399871826172 12.659000396728516,-39.37099838256836 9.871000289916992,-39.53200149536133 C4.855000019073486,-39.81800079345703 -13.909000396728516,-37.02899932861328 -16.415000915527344,-35.8489990234375 C-18.982999801635742,-34.63800048828125 -32.58399963378906,-13.366000175476074 -32.8390007019043,-11.3149995803833 C-32.93299865722656,-10.581999778747559 -32.191001892089844,-9.293999671936035 -30.636999130249023,-8.355999946594238 C-29.14900016784668,-7.461999893188477 -25.0310001373291,-5.835000038146973 -18.947999954223633,-10.098999977111816 C-10.23799991607666,-16.200000762939453 -7.302999973297119,-21.211999893188477 -7.159999847412109,-21.23900032043457 C-7.159999847412109,-21.23900032043457 -0.6740000247955322,-22.93600082397461 -0.6919999718666077,-22.92300033569336 C-1.5779999494552612,-22.288000106811523 21.558000564575195,-5.861000061035156 29.80500030517578,-6.107999801635742z"/></g><g opacity="1" transform="matrix(1,0,0,1,0,0)"><path fill="rgb(178,223,192)" fill-opacity="1" d=" M62.79399871826172,-1.2799999713897705 C62.34400177001953,-1.159999966621399 30.760000228881836,-5.736000061035156 29.336000442504883,-6.191999912261963 C25.55699920654297,-7.39900016784668 22.14299964904785,-7.849999904632568 19.141000747680664,-9.140999794006348 C11.071000099182129,-12.611000061035156 4.189000129699707,-18.812999725341797 -0.11800000071525574,-22.447999954223633 C17.802000045776367,-12.807999610900879 51.17499923706055,-3.556999921798706 62.79399871826172,-1.2799999713897705z"/></g><g opacity="1" transform="matrix(1,0,0,1,0,0)"><g opacity="1" transform="matrix(1,0,0,1,0,0)"><path fill="rgb(205,252,215)" fill-opacity="1" d=" M47.08300018310547,-29.968000411987305 C47.08300018310547,-29.968000411987305 40.861000061035156,-41.709999084472656 40.861000061035156,-41.709999084472656 C39.86000061035156,-43.59600067138672 40.51300048828125,-45.9379997253418 42.3390007019043,-47.04199981689453 C42.3390007019043,-47.04199981689453 53.577999114990234,-53.80099868774414 53.577999114990234,-53.80099868774414 C55.551998138427734,-54.9900016784668 58.119998931884766,-54.275001525878906 59.20100021362305,-52.236000061035156 C59.20100021362305,-52.236000061035156 85.0719985961914,-3.4130001068115234 85.0719985961914,-3.4130001068115234 C86.0719985961914,-1.5269999504089355 85.41999816894531,0.8159999847412109 83.59300231933594,1.9199999570846558 C83.59300231933594,1.9199999570846558 72.3550033569336,8.678000450134277 72.3550033569336,8.678000450134277 C70.38099670410156,9.866999626159668 67.81300354003906,9.152000427246094 66.73200225830078,7.113999843597412 C66.73200225830078,7.113999843597412 50.40599822998047,-23.69700050354004 50.40599822998047,-23.69700050354004"/><path stroke-linecap="round" stroke-linejoin="round" fill-opacity="0" stroke="rgb(25,58,61)" stroke-opacity="1" stroke-width="1" d=" M47.08300018310547,-29.968000411987305 C47.08300018310547,-29.968000411987305 40.861000061035156,-41.709999084472656 40.861000061035156,-41.709999084472656 C39.86000061035156,-43.59600067138672 40.51300048828125,-45.9379997253418 42.3390007019043,-47.04199981689453 C42.3390007019043,-47.04199981689453 53.577999114990234,-53.80099868774414 53.577999114990234,-53.80099868774414 C55.551998138427734,-54.9900016784668 58.119998931884766,-54.275001525878906 59.20100021362305,-52.236000061035156 C59.20100021362305,-52.236000061035156 85.0719985961914,-3.4130001068115234 85.0719985961914,-3.4130001068115234 C86.0719985961914,-1.5269999504089355 85.41999816894531,0.8159999847412109 83.59300231933594,1.9199999570846558 C83.59300231933594,1.9199999570846558 72.3550033569336,8.678000450134277 72.3550033569336,8.678000450134277 C70.38099670410156,9.866999626159668 67.81300354003906,9.152000427246094 66.73200225830078,7.113999843597412 C66.73200225830078,7.113999843597412 50.40599822998047,-23.69700050354004 50.40599822998047,-23.69700050354004"/></g><g opacity="1" transform="matrix(1,0,0,1,0,0)"><path fill="rgb(178,223,192)" fill-opacity="1" d=" M83.36100006103516,1.5299999713897705 C83.36100006103516,1.5299999713897705 72.12300109863281,8.293000221252441 72.12300109863281,8.293000221252441 C71.2750015258789,8.802000045776367 70.28299713134766,8.935999870300293 69.3270034790039,8.67300033569336 C68.37100219726562,8.409000396728516 67.58999633789062,7.7789998054504395 67.125,6.9029998779296875 C67.125,6.9029998779296875 62.62699890136719,-1.7039999961853027 62.62699890136719,-1.7039999961853027 C63.50699996948242,-1.409000039100647 65.41899871826172,-0.906000018119812 67.54499816894531,-1.4199999570846558 C70.4260025024414,-2.117000102996826 79.55599975585938,-7.083000183105469 80.25199890136719,-7.9770002365112305 C80.65899658203125,-8.5 80.93099975585938,-9.366999626159668 81.08300018310547,-9.993000030517578 C81.08300018310547,-9.993000030517578 84.67900085449219,-3.2079999446868896 84.67900085449219,-3.2079999446868896 C85.56800079345703,-1.5269999504089355 84.98699951171875,0.5550000071525574 83.36100006103516,1.5299999713897705 C83.36100006103516,1.5299999713897705 83.36100006103516,1.5299999713897705 83.36100006103516,1.5299999713897705z"/></g><g opacity="1" transform="matrix(1,0,0,1,0,0)"><path fill="rgb(255,255,255)" fill-opacity="1" d=" M51.513999938964844,-40.44499969482422 C53.83300018310547,-40.44499969482422 55.7130012512207,-42.32600021362305 55.7130012512207,-44.64699935913086 C55.7130012512207,-46.96799850463867 53.83300018310547,-48.8489990234375 51.513999938964844,-48.8489990234375 C49.19499969482422,-48.8489990234375 47.314998626708984,-46.96799850463867 47.314998626708984,-44.64699935913086 C47.314998626708984,-42.32699966430664 49.19499969482422,-40.44499969482422 51.513999938964844,-40.44499969482422z"/></g><g opacity="1" transform="matrix(1,0,0,1,0,0)"><path stroke-linecap="round" stroke-linejoin="round" fill-opacity="0" stroke="rgb(25,58,61)" stroke-opacity="1" stroke-width="1" d=" M55.71200180053711,-44.09199905395508 C55.439998626708984,-42.02299880981445 53.67100143432617,-40.426998138427734 51.53200149536133,-40.426998138427734 C49.20000076293945,-40.426998138427734 47.314998626708984,-42.31800079345703 47.314998626708984,-44.64699935913086 C47.314998626708984,-46.97600173950195 49.20500183105469,-48.86600112915039 51.53200149536133,-48.86600112915039 C52.31800079345703,-48.86600112915039 53.058998107910156,-48.652000427246094 53.68899917602539,-48.27199935913086"/></g></g><g opacity="1" transform="matrix(1,0,0,1,0,0)"><path fill="rgb(0,0,0)" fill-opacity="0.15" d=" M-27.44700050354004,-6.84499979019165 C-27.44700050354004,-6.84499979019165 -18.62700080871582,-5.343999862670898 -11.083000183105469,-8.920999526977539 C-2,-13.227999687194824 1.7599999904632568,-20.94700050354004 1.7599999904632568,-20.94700050354004 C1.7599999904632568,-20.94700050354004 -1.062999963760376,-22.92300033569336 -1.062999963760376,-22.92300033569336 C-1.062999963760376,-22.92300033569336 -7.079999923706055,-21.801000595092773 -7.079999923706055,-21.801000595092773 C-7.079999923706055,-21.801000595092773 -14.409000396728516,-10.805999755859375 -20.496999740600586,-8.60200023651123 C-26.584999084472656,-6.3979997634887695 -27.44700050354004,-6.84499979019165 -27.44700050354004,-6.84499979019165z"/></g><g opacity="1" transform="matrix(1,0,0,1,0,0)"><path stroke-linecap="round" stroke-linejoin="round" fill-opacity="0" stroke="rgb(25,58,61)" stroke-opacity="1" stroke-width="1" d=" M42.79999923706055,-38.040000915527344 C42.79999923706055,-38.040000915527344 37.439998626708984,-35.65800094604492 35.50600051879883,-35.50600051879883 C33.571998596191406,-35.354000091552734 15.105999946594238,-39.67599868774414 9.89799976348877,-39.97600173950195 C4.685999870300293,-40.275001525878906 -14.074000358581543,-37.441001892089844 -16.601999282836914,-36.25199890136719 C-19.1299991607666,-35.0629997253418 -32.981998443603516,-13.755999565124512 -33.2760009765625,-11.369000434875488 C-33.57600021362305,-8.987000465393066 -27.617000579833984,-3.4709999561309814 -18.68400001525879,-9.729000091552734 C-9.75100040435791,-15.986000061035156 -7.071000099182129,-21.797000885009766 -7.071000099182129,-21.797000885009766 C-7.071000099182129,-21.797000885009766 -0.6700000166893005,-22.990999221801758 -0.6700000166893005,-22.990999221801758 C8.432000160217285,-14.229000091552734 21.04199981689453,-5.479000091552734 32.97800064086914,-6.335999965667725"/></g></g></g><g transform="matrix(11.32999324798584,-0.011852624826133251,0.011852624826133251,11.32999324798584,1000.3289794921875,936.0598754882812)" opacity="1" style="display: block;"><g opacity="1" transform="matrix(1,0,0,1,0,0)"><g opacity="1" transform="matrix(1,0,0,1,0,0)"><path fill="rgb(0,0,0)" fill-opacity="0.15" d=" M-16.35700035095215,9.298999786376953 C-17.3439998626709,6.375999927520752 -20.36400032043457,3.7160000801086426 -23.386999130249023,3.1089999675750732 C-24.820999145507812,2.822000026702881 -26.875999450683594,2.871999979019165 -28.52400016784668,4.739999771118164 C-28.52400016784668,4.739999771118164 -43.858001708984375,22.315000534057617 -43.858001708984375,22.315000534057617 C-47.404998779296875,26.35099983215332 -46.11800003051758,30.7450008392334 -43.41999816894531,33.11899948120117 C-40.72200012207031,35.492000579833984 -36.20199966430664,36.21200180053711 -32.65599822998047,32.18000030517578 C-32.65599822998047,32.18000030517578 -17.326000213623047,14.604999542236328 -17.326000213623047,14.604999542236328 C-15.678000450134277,12.732000350952148 -15.892000198364258,10.6850004196167 -16.361000061035156,9.298999786376953 C-16.361000061035156,9.298999786376953 -16.35700035095215,9.298999786376953 -16.35700035095215,9.298999786376953z"/></g><g opacity="1" transform="matrix(1,0,0,1,0,0)"><path fill="rgb(0,0,0)" fill-opacity="0.15" d=" M-42.93299865722656,19.88800048828125 C-42.93299865722656,19.88800048828125 -34.380001068115234,9.89799976348877 -34.380001068115234,9.89799976348877 C-31.642000198364258,6.7820000648498535 -33.29899978637695,2.812999963760376 -35.99700164794922,0.4350000023841858 C-38.69499969482422,-1.937999963760376 -42.84000015258789,-3.0820000171661377 -45.573001861572266,0.024000000208616257 C-45.573001861572266,0.024000000208616257 -54.12699890136719,10.013999938964844 -54.12699890136719,10.013999938964844 C-57.374000549316406,13.706000328063965 -55.94900131225586,17.944000244140625 -53.250999450683594,20.316999435424805 C-50.55400085449219,22.690000534057617 -46.172000885009766,23.570999145507812 -42.92900085449219,19.878999710083008 C-42.92900085449219,19.878999710083008 -42.93299865722656,19.88800048828125 -42.93299865722656,19.88800048828125z"/></g><g opacity="1" transform="matrix(1,0,0,1,0,0)"><path fill="rgb(0,0,0)" fill-opacity="0.15" d=" M-9.52299976348877,29.72599983215332 C-7.7230000495910645,27.679000854492188 -7.933000087738037,25.506999969482422 -8.423999786376953,24.041000366210938 C-9.392999649047852,21.16699981689453 -12.256999969482422,18.645999908447266 -15.22700023651123,18.047000885009766 C-16.73699951171875,17.743000030517578 -18.916000366210938,17.809999465942383 -20.711999893188477,19.847999572753906 C-20.711999893188477,19.847999572753906 -30.20800018310547,31.152000427246094 -30.20800018310547,31.152000427246094 C-33.75899887084961,35.19300079345703 -32.472999572753906,39.58700180053711 -29.774999618530273,41.959999084472656 C-27.07699966430664,44.3380012512207 -22.56100082397461,45.053001403808594 -19.010000228881836,41.020999908447266 C-19.010000228881836,41.020999908447266 -9.517999649047852,29.722000122070312 -9.517999649047852,29.722000122070312 C-9.517999649047852,29.722000122070312 -9.52299976348877,29.72599983215332 -9.52299976348877,29.72599983215332z"/></g><g opacity="1" transform="matrix(1,0,0,1,0,0)"><path fill="rgb(0,0,0)" fill-opacity="0.15" d=" M-1.4190000295639038,33.3390007019043 C-4.117000102996826,30.965999603271484 -8.145999908447266,29.695999145507812 -10.628999710083008,32.516998291015625 C-10.628999710083008,32.516998291015625 -16.93199920654297,39.93199920654297 -16.93199920654297,39.93199920654297 C-18.740999221801758,41.987998962402344 -19.290000915527344,44.43299865722656 -18.481000900268555,46.82400131225586 C-17.583999633789062,49.49300003051758 -12.739999771118164,46.183998107910156 -9.984000205993652,46.737998962402344 C-7.508999824523926,47.23500061035156 -6.65500020980835,50.48500061035156 -4.85099983215332,48.43299865722656 C-4.85099983215332,48.43299865722656 0.5690000057220459,42.38600158691406 0.5690000057220459,42.38600158691406 C3.056999921798706,39.555999755859375 1.2829999923706055,35.71200180053711 -1.4140000343322754,33.3390007019043 C-1.4140000343322754,33.3390007019043 -1.4190000295639038,33.3390007019043 -1.4190000295639038,33.3390007019043z"/></g><g opacity="1" transform="matrix(1,0,0,1,0,0)"><path fill="rgb(205,252,215)" fill-opacity="1" d=" M-33.334999084472656,4.74399995803833 C-33.334999084472656,4.74399995803833 -48.66899871826172,22.31999969482422 -48.66899871826172,22.31999969482422 C-55.94499969482422,30.593000411987305 -44.071998596191406,41.04800033569336 -36.79600143432617,32.77399826049805 C-36.79600143432617,32.77399826049805 -21.461999893188477,15.199000358581543 -21.461999893188477,15.199000358581543 C-15.982000350952148,8.96399974822998 -27.854000091552734,-1.4910000562667847 -33.334999084472656,4.74399995803833z"/><path stroke-linecap="round" stroke-linejoin="round" fill-opacity="0" stroke="rgb(25,58,61)" stroke-opacity="1" stroke-width="1" d=" M-33.334999084472656,4.74399995803833 C-33.334999084472656,4.74399995803833 -48.66899871826172,22.31999969482422 -48.66899871826172,22.31999969482422 C-55.94499969482422,30.593000411987305 -44.071998596191406,41.04800033569336 -36.79600143432617,32.77399826049805 C-36.79600143432617,32.77399826049805 -21.461999893188477,15.199000358581543 -21.461999893188477,15.199000358581543 C-15.982000350952148,8.96399974822998 -27.854000091552734,-1.4910000562667847 -33.334999084472656,4.74399995803833z"/></g><g opacity="1" transform="matrix(1,0,0,1,0,0)"><path fill="rgb(205,252,215)" fill-opacity="1" d=" M-50.38800048828125,0.032999999821186066 C-50.38800048828125,0.032999999821186066 -58.94599914550781,10.027999877929688 -58.94599914550781,10.027999877929688 C-65.63300323486328,17.635000228881836 -53.76100158691406,28.084999084472656 -47.07400131225586,20.48200035095215 C-47.07400131225586,20.48200035095215 -38.51599884033203,10.48799991607666 -38.51599884033203,10.48799991607666 C-32.816001892089844,4.006999969482422 -44.68899917602539,-6.447999954223633 -50.38800048828125,0.032999999821186066z"/><path stroke-linecap="round" stroke-linejoin="round" fill-opacity="0" stroke="rgb(25,58,61)" stroke-opacity="1" stroke-width="1" d=" M-50.38800048828125,0.032999999821186066 C-50.38800048828125,0.032999999821186066 -58.94599914550781,10.027999877929688 -58.94599914550781,10.027999877929688 C-65.63300323486328,17.635000228881836 -53.76100158691406,28.084999084472656 -47.07400131225586,20.48200035095215 C-47.07400131225586,20.48200035095215 -38.51599884033203,10.48799991607666 -38.51599884033203,10.48799991607666 C-32.816001892089844,4.006999969482422 -44.68899917602539,-6.447999954223633 -50.38800048828125,0.032999999821186066z"/></g><g opacity="1" transform="matrix(1,0,0,1,0,0)"><path fill="rgb(205,252,215)" fill-opacity="1" d=" M-25.527000427246094,19.85700035095215 C-25.527000427246094,19.85700035095215 -35.02299880981445,31.160999298095703 -35.02299880981445,31.160999298095703 C-42.29899978637695,39.433998107910156 -30.427000045776367,49.888999938964844 -23.150999069213867,41.61600112915039 C-23.150999069213867,41.61600112915039 -13.654999732971191,30.312000274658203 -13.654999732971191,30.312000274658203 C-7.875,23.740999221801758 -19.746999740600586,13.28600025177002 -25.527000427246094,19.85700035095215z"/><path stroke-linecap="round" stroke-linejoin="round" fill-opacity="0" stroke="rgb(25,58,61)" stroke-opacity="1" stroke-width="1" d=" M-25.527000427246094,19.85700035095215 C-25.527000427246094,19.85700035095215 -35.02299880981445,31.160999298095703 -35.02299880981445,31.160999298095703 C-42.29899978637695,39.433998107910156 -30.427000045776367,49.888999938964844 -23.150999069213867,41.61600112915039 C-23.150999069213867,41.61600112915039 -13.654999732971191,30.312000274658203 -13.654999732971191,30.312000274658203 C-7.875,23.740999221801758 -19.746999740600586,13.28600025177002 -25.527000427246094,19.85700035095215z"/></g><g opacity="1" transform="matrix(1,0,0,1,0,0)"><path fill="rgb(205,252,215)" fill-opacity="1" d=" M-15.687000274658203,32.922000885009766 C-15.687000274658203,32.922000885009766 -21.993999481201172,40.34199905395508 -21.993999481201172,40.34199905395508 C-28.770000457763672,48.04399871826172 -16.89699935913086,58.499000549316406 -10.121000289916992,50.797000885009766 C-10.121000289916992,50.797000885009766 -3.813999891281128,43.37699890136719 -3.813999891281128,43.37699890136719 C1.3980000019073486,37.45000076293945 -10.473999977111816,26.996000289916992 -15.687000274658203,32.922000885009766z"/><path stroke-linecap="round" stroke-linejoin="round" fill-opacity="0" stroke="rgb(25,58,61)" stroke-opacity="1" stroke-width="1" d=" M-15.687000274658203,32.922000885009766 C-15.687000274658203,32.922000885009766 -21.993999481201172,40.34199905395508 -21.993999481201172,40.34199905395508 C-28.770000457763672,48.04399871826172 -16.89699935913086,58.499000549316406 -10.121000289916992,50.797000885009766 C-10.121000289916992,50.797000885009766 -3.813999891281128,43.37699890136719 -3.813999891281128,43.37699890136719 C1.3980000019073486,37.45000076293945 -10.473999977111816,26.996000289916992 -15.687000274658203,32.922000885009766z"/></g></g></g></g></svg>