<svg viewBox="0 0 100 100" fill="none" xmlns="http://www.w3.org/2000/svg">
    <defs>
        <linearGradient id="commGradient" x1="0%" y1="0%" x2="100%" y2="100%">
            <stop offset="0%" style="stop-color:#06b6d4;stop-opacity:1" />
            <stop offset="100%" style="stop-color:#0891b2;stop-opacity:1" />
        </linearGradient>
    </defs>
    
    <!-- Central Hub -->
    <circle cx="50" cy="50" r="8" fill="url(#commGradient)"/>
    
    <!-- Communication Nodes -->
    <circle cx="20" cy="30" r="5" fill="#06b6d4" opacity="0.8"/>
    <circle cx="80" cy="30" r="5" fill="#06b6d4" opacity="0.8"/>
    <circle cx="20" cy="70" r="5" fill="#06b6d4" opacity="0.8"/>
    <circle cx="80" cy="70" r="5" fill="#06b6d4" opacity="0.8"/>
    <circle cx="50" cy="20" r="5" fill="#06b6d4" opacity="0.8"/>
    <circle cx="50" cy="80" r="5" fill="#06b6d4" opacity="0.8"/>
    
    <!-- Communication Links -->
    <line x1="50" y1="50" x2="20" y2="30" stroke="#06b6d4" stroke-width="2" opacity="0.6"/>
    <line x1="50" y1="50" x2="80" y2="30" stroke="#06b6d4" stroke-width="2" opacity="0.6"/>
    <line x1="50" y1="50" x2="20" y2="70" stroke="#06b6d4" stroke-width="2" opacity="0.6"/>
    <line x1="50" y1="50" x2="80" y2="70" stroke="#06b6d4" stroke-width="2" opacity="0.6"/>
    <line x1="50" y1="50" x2="50" y2="20" stroke="#06b6d4" stroke-width="2" opacity="0.6"/>
    <line x1="50" y1="50" x2="50" y2="80" stroke="#06b6d4" stroke-width="2" opacity="0.6"/>
    
    <!-- Data Packets -->
    <rect x="15" y="25" width="8" height="4" fill="#fbbf24" rx="1" opacity="0.8"/>
    <rect x="77" y="25" width="8" height="4" fill="#fbbf24" rx="1" opacity="0.8"/>
    <rect x="15" y="71" width="8" height="4" fill="#fbbf24" rx="1" opacity="0.8"/>
    <rect x="77" y="71" width="8" height="4" fill="#fbbf24" rx="1" opacity="0.8"/>
    
    <!-- Signal Waves -->
    <path d="M 20 30 Q 25 25 30 30 Q 25 35 20 30" stroke="#06b6d4" stroke-width="1" fill="none" opacity="0.4"/>
    <path d="M 80 30 Q 75 25 70 30 Q 75 35 80 30" stroke="#06b6d4" stroke-width="1" fill="none" opacity="0.4"/>
    <path d="M 20 70 Q 25 65 30 70 Q 25 75 20 70" stroke="#06b6d4" stroke-width="1" fill="none" opacity="0.4"/>
    <path d="M 80 70 Q 75 65 70 70 Q 75 75 80 70" stroke="#06b6d4" stroke-width="1" fill="none" opacity="0.4"/>
</svg>
