<svg viewBox="0 0 100 100" fill="none" xmlns="http://www.w3.org/2000/svg">
    <defs>
        <linearGradient id="dataGradient" x1="0%" y1="0%" x2="100%" y2="100%">
            <stop offset="0%" style="stop-color:#8b5cf6;stop-opacity:1" />
            <stop offset="100%" style="stop-color:#7c3aed;stop-opacity:1" />
        </linearGradient>
    </defs>
    
    <!-- Central Processor -->
    <rect x="35" y="35" width="30" height="30" fill="url(#dataGradient)" rx="4"/>
    
    <!-- Processor Core -->
    <rect x="40" y="40" width="20" height="20" fill="#a78bfa" rx="2"/>
    
    <!-- Data Input Streams -->
    <rect x="10" y="20" width="15" height="3" fill="#8b5cf6" rx="1"/>
    <rect x="10" y="30" width="20" height="3" fill="#8b5cf6" rx="1"/>
    <rect x="10" y="40" width="18" height="3" fill="#8b5cf6" rx="1"/>
    <rect x="10" y="50" width="22" height="3" fill="#8b5cf6" rx="1"/>
    <rect x="10" y="60" width="16" height="3" fill="#8b5cf6" rx="1"/>
    
    <!-- Data Output Streams -->
    <rect x="75" y="20" width="15" height="3" fill="#a78bfa" rx="1"/>
    <rect x="70" y="30" width="20" height="3" fill="#a78bfa" rx="1"/>
    <rect x="72" y="40" width="18" height="3" fill="#a78bfa" rx="1"/>
    <rect x="68" y="50" width="22" height="3" fill="#a78bfa" rx="1"/>
    <rect x="74" y="60" width="16" height="3" fill="#a78bfa" rx="1"/>
    
    <!-- Processing Indicators -->
    <circle cx="45" cy="45" r="2" fill="#fbbf24" opacity="0.8"/>
    <circle cx="50" cy="50" r="2" fill="#fbbf24" opacity="0.8"/>
    <circle cx="55" cy="45" r="2" fill="#fbbf24" opacity="0.8"/>
    <circle cx="50" cy="55" r="2" fill="#fbbf24" opacity="0.8"/>
    
    <!-- Data Flow Arrows -->
    <path d="M 25 21.5 L 30 21.5" stroke="#8b5cf6" stroke-width="2" marker-end="url(#arrowhead)"/>
    <path d="M 25 31.5 L 30 31.5" stroke="#8b5cf6" stroke-width="2" marker-end="url(#arrowhead)"/>
    <path d="M 25 41.5 L 30 41.5" stroke="#8b5cf6" stroke-width="2" marker-end="url(#arrowhead)"/>
    <path d="M 25 51.5 L 30 51.5" stroke="#8b5cf6" stroke-width="2" marker-end="url(#arrowhead)"/>
    <path d="M 25 61.5 L 30 61.5" stroke="#8b5cf6" stroke-width="2" marker-end="url(#arrowhead)"/>
    
    <path d="M 70 21.5 L 75 21.5" stroke="#a78bfa" stroke-width="2" marker-end="url(#arrowhead)"/>
    <path d="M 70 31.5 L 75 31.5" stroke="#a78bfa" stroke-width="2" marker-end="url(#arrowhead)"/>
    <path d="M 70 41.5 L 75 41.5" stroke="#a78bfa" stroke-width="2" marker-end="url(#arrowhead)"/>
    <path d="M 70 51.5 L 75 51.5" stroke="#a78bfa" stroke-width="2" marker-end="url(#arrowhead)"/>
    <path d="M 70 61.5 L 75 61.5" stroke="#a78bfa" stroke-width="2" marker-end="url(#arrowhead)"/>
    
    <!-- Arrow Marker Definition -->
    <defs>
        <marker id="arrowhead" markerWidth="10" markerHeight="7" refX="9" refY="3.5" orient="auto">
            <polygon points="0 0, 10 3.5, 0 7" fill="#8b5cf6"/>
        </marker>
    </defs>
    
    <!-- Status Indicators -->
    <circle cx="20" cy="80" r="3" fill="#10b981" opacity="0.8"/>
    <circle cx="30" cy="80" r="3" fill="#f59e0b" opacity="0.8"/>
    <circle cx="40" cy="80" r="3" fill="#ef4444" opacity="0.8"/>
    <circle cx="50" cy="80" r="3" fill="#10b981" opacity="0.8"/>
    <circle cx="60" cy="80" r="3" fill="#f59e0b" opacity="0.8"/>
    <circle cx="70" cy="80" r="3" fill="#10b981" opacity="0.8"/>
    <circle cx="80" cy="80" r="3" fill="#ef4444" opacity="0.8"/>
</svg>
