<!--version="1.0" encoding="UTF-8" standalone="yes"--><svg xmlns="http://www.w3.org/2000/svg" xmlns:xlink="http://www.w3.org/1999/xlink" width="612pt" height="792pt">
 <g id="SFixTitle"/>
 <g id="SContent">
  <g transform="scale(1.33333)">
   <rect width="100%" height="100%" fill="white"/>
   <g>
    <g>
     <g/>
     <g shape-rendering="crispEdges"/>
     <g/>
    </g>
    <g>
     <g/>
    </g>
    <g>
     <g/>
    </g>
   </g>
   <g transform="matrix(1,0,0,1,54,72)">
    <defs>
     <clipPath id="CLIP0">
      <path d="M-0.5,-0.5 L491.5,-0.5 L491.5,643.5 L-0.5,643.5 Z "/>
     </clipPath>
    </defs>
    <g clip-path="url(#CLIP0)">
     <g/>
     <g shape-rendering="crispEdges"/>
     <g/>
    </g>
    <defs>
     <clipPath id="CLIP1">
      <path d="M-0.5,-1.45363903 L491.5,-1.45363903 L491.5,644.546386719 L-0.5,644.546386719 Z "/>
     </clipPath>
    </defs>
    <g clip-path="url(#CLIP1)">
     <g>
      <g/>
     </g>
    </g>
    <defs>
     <clipPath id="CLIP2">
      <path d="M-0.5,-0.5 L491.5,-0.5 L491.5,643.5 L-0.5,643.5 Z "/>
     </clipPath>
    </defs>
    <g clip-path="url(#CLIP2)">
     <g>
      <defs>
       <clipPath id="CLIP3">
        <path d="M0.25,0.25 L29.737474442,0.25 L29.737474442,86.241523743 L0.25,86.241523743 Z "/>
       </clipPath>
      </defs>
      <g clip-path="url(#CLIP3)">
       <g>
        <g transform="matrix(1,0,0,1,12.50373745,48.45463562)">
         <text x="0" y="-2.110664129" class="f0">v</text>
        </g>
       </g>
      </g>
      <defs>
       <clipPath id="CLIP4">
        <path d="M30.237474442,0.25 L47.887786865,0.25 L47.887786865,86.241523743 L30.237474442,86.241523743 Z "/>
       </clipPath>
      </defs>
      <g clip-path="url(#CLIP4)">
       <g>
        <g transform="matrix(1,0,0,1,36.020648956,48.45463562)">
         <text x="0" y="-2.110664129" class="f0">fr</text>
        </g>
       </g>
      </g>
      <defs>
       <clipPath id="CLIP5">
        <path d="M48.387786865,0.25 L62.881523132,0.25 L62.881523132,86.241523743 L48.387786865,86.241523743 Z "/>
       </clipPath>
      </defs>
      <g clip-path="url(#CLIP5)">
       <g>
        <g transform="matrix(1,0,0,1,51.758621216,48.45463562)">
         <text x="0" y="-2.110664129" class="f0">ip</text>
        </g>
       </g>
      </g>
      <defs>
       <clipPath id="CLIP6">
        <path d="M63.381526947,0.25 L86.555847168,0.25 L86.555847168,86.241523743 L63.381526947,86.241523743 Z "/>
       </clipPath>
      </defs>
      <g clip-path="url(#CLIP6)">
       <g>
        <g transform="matrix(1,0,0,1,69.429412842,48.45463562)">
         <text x="0" y="-2.110664129" class="f0">op</text>
        </g>
       </g>
      </g>
      <defs>
       <clipPath id="CLIP7">
        <path d="M87.055847168,0.25 L115.754180908,0.25 L115.754180908,86.241523743 L87.055847168,86.241523743 Z "/>
       </clipPath>
      </defs>
      <g clip-path="url(#CLIP7)">
       <g>
        <g transform="matrix(1,0,0,1,97.808616638,48.45463562)">
         <text x="0" y="-2.110664129" class="f0">w</text>
        </g>
       </g>
      </g>
      <defs>
       <clipPath id="CLIP8">
        <path d="M116.254180908,0.25 L144.952514648,0.25 L144.952514648,86.241523743 L116.254180908,86.241523743 Z "/>
       </clipPath>
      </defs>
      <g clip-path="url(#CLIP8)">
       <g>
        <g transform="matrix(1,0,0,1,127.833709717,48.45463562)">
         <text x="0" y="-2.110664129" class="f0">h</text>
        </g>
       </g>
      </g>
      <defs>
       <clipPath id="CLIP9">
        <path d="M145.452514648,0.25 L223.866912842,0.25 L223.866912842,86.241523743 L145.452514648,86.241523743 Z "/>
       </clipPath>
      </defs>
      <g clip-path="url(#CLIP9)">
       <g>
        <g transform="matrix(1,0,0,1,177.741699219,48.45463562)">
         <text x="0" y="-2.110664129" class="f0">nm</text>
        </g>
       </g>
      </g>
      <defs>
       <clipPath id="CLIP10">
        <path d="M224.366912842,0.25 L247.541229248,0.25 L247.541229248,86.241523743 L224.366912842,86.241523743 Z "/>
       </clipPath>
      </defs>
      <g clip-path="url(#CLIP10)">
       <g>
        <g transform="matrix(1,0,0,1,227.64515686,48.45463562)">
         <text x="0" y="-2.110664129" class="f0">ddd</text>
        </g>
       </g>
      </g>
      <defs>
       <clipPath id="CLIP11">
        <path d="M248.041244507,0.25 L285.420166016,0.25 L285.420166016,86.241523743 L248.041244507,86.241523743 Z "/>
       </clipPath>
      </defs>
      <g clip-path="url(#CLIP11)">
       <g>
        <g transform="matrix(1,0,0,1,252.337814331,48.45463562)">
         <text x="0" y="-2.110664129" class="f0">assets</text>
        </g>
       </g>
      </g>
      <defs>
       <clipPath id="CLIP12">
        <path d="M285.920166016,0.25 L3389.123779297,0.25 L3389.123779297,12.105932236 L285.920166016,12.105932236 Z "/>
       </clipPath>
      </defs>
      <g clip-path="url(#CLIP12)">
       <g>
        <g transform="matrix(1,0,0,1,1824.237915039,11.386839867)">
         <text x="0" y="-2.110664129" class="f0">layers</text>
        </g>
       </g>
      </g>
      <defs>
       <clipPath id="CLIP13">
        <path d="M285.920166016,12.605932236 L309.094482422,12.605932236 L309.094482422,86.241531372 L285.920166016,86.241531372 Z "/>
       </clipPath>
      </defs>
      <g clip-path="url(#CLIP13)">
       <g>
        <g transform="matrix(1,0,0,1,289.198425293,54.632606506)">
         <text x="0" y="-2.110664129" class="f0">ddd</text>
        </g>
       </g>
      </g>
      <defs>
       <clipPath id="CLIP14">
        <path d="M309.594482422,12.605932236 L329.612243652,12.605932236 L329.612243652,86.241531372 L309.594482422,86.241531372 Z "/>
       </clipPath>
      </defs>
      <g clip-path="url(#CLIP14)">
       <g>
        <g transform="matrix(1,0,0,1,312.957672119,54.632606506)">
         <text x="0" y="-2.110664129" class="f0">ind</text>
        </g>
       </g>
      </g>
      <defs>
       <clipPath id="CLIP15">
        <path d="M330.112213135,12.605932236 L345.395080566,12.605932236 L345.395080566,86.241531372 L330.112213135,86.241531372 Z "/>
       </clipPath>
      </defs>
      <g clip-path="url(#CLIP15)">
       <g>
        <g transform="matrix(1,0,0,1,333.880065918,54.632606506)">
         <text x="0" y="-2.110664129" class="f0">ty</text>
        </g>
       </g>
      </g>
      <defs>
       <clipPath id="CLIP16">
        <path d="M345.895111084,12.605932236 L410.894073486,12.605932236 L410.894073486,86.241531372 L345.895111084,86.241531372 Z "/>
       </clipPath>
      </defs>
      <g clip-path="url(#CLIP16)">
       <g>
        <g transform="matrix(1,0,0,1,371.4765625,54.632606506)">
         <text x="0" y="-2.110664129" class="f0">nm</text>
        </g>
       </g>
      </g>
      <defs>
       <clipPath id="CLIP17">
        <path d="M411.394073486,12.605932236 L446.405548096,12.605932236 L446.405548096,86.241531372 L411.394073486,86.241531372 Z "/>
       </clipPath>
      </defs>
      <g clip-path="url(#CLIP17)">
       <g>
        <g transform="matrix(1,0,0,1,414.779266357,54.632606506)">
         <text x="0" y="-2.110664129" class="f0">parent</text>
        </g>
       </g>
      </g>
      <defs>
       <clipPath id="CLIP18">
        <path d="M446.905548096,12.605932236 L462.188415527,12.605932236 L462.188415527,86.241531372 L446.905548096,86.241531372 Z "/>
       </clipPath>
      </defs>
      <g clip-path="url(#CLIP18)">
       <g>
        <g transform="matrix(1,0,0,1,450.393737793,54.632606506)">
         <text x="0" y="-2.110664129" class="f0">td</text>
        </g>
       </g>
      </g>
      <defs>
       <clipPath id="CLIP19">
        <path d="M462.688415527,12.605932236 L477.971282959,12.605932236 L477.971282959,86.241531372 L462.688415527,86.241531372 Z "/>
       </clipPath>
      </defs>
      <g clip-path="url(#CLIP19)">
       <g>
        <g transform="matrix(1,0,0,1,466.181488037,54.632606506)">
         <text x="0" y="-2.110664129" class="f0">sr</text>
        </g>
       </g>
      </g>
      <defs>
       <clipPath id="CLIP20">
        <path d="M478.471313477,12.605932236 L1716.927490234,12.605932236 L1716.927490234,24.461864471 L478.471313477,24.461864471 Z "/>
       </clipPath>
      </defs>
      <g clip-path="url(#CLIP20)">
       <g>
        <g transform="matrix(1,0,0,1,1092.719482422,23.742771149)">
         <text x="0" y="-2.110664129" class="f0">ks</text>
        </g>
       </g>
      </g>
      <defs>
       <clipPath id="CLIP21">
        <path d="M478.471313477,24.961864471 L568.722900391,24.961864471 L568.722900391,36.8177948 L478.471313477,36.8177948 Z "/>
       </clipPath>
      </defs>
      <g clip-path="url(#CLIP21)">
       <g>
        <g transform="matrix(1,0,0,1,520.827453613,36.098701477)">
         <text x="0" y="-2.110664129" class="f0">o</text>
        </g>
       </g>
      </g>
      <defs>
       <clipPath id="CLIP22">
        <path d="M478.471313477,37.3177948 L490.597625732,37.3177948 L490.597625732,86.241523743 L478.471313477,86.241523743 Z "/>
       </clipPath>
      </defs>
      <g clip-path="url(#CLIP22)">
       <g>
        <g transform="matrix(1,0,0,1,481.764831543,66.98853302)">
         <text x="0" y="-2.110664129" class="f0">a</text>
        </g>
       </g>
      </g>
      <defs>
       <clipPath id="CLIP23">
        <path d="M0.25,86.741523743 L29.737474442,86.741523743 L29.737474442,98.597457886 L0.25,98.597457886 Z "/>
       </clipPath>
      </defs>
      <g clip-path="url(#CLIP23)">
       <g>
        <g transform="matrix(1,0,0,1,1.052192092,97.878364563)">
         <text x="1" y="-2.110664129" class="f0">5.8.1</text>
        </g>
       </g>
      </g>
      <defs>
       <clipPath id="CLIP24">
        <path d="M30.237474442,86.741523743 L47.887786865,86.741523743 L47.887786865,98.597457886 L30.237474442,98.597457886 Z "/>
       </clipPath>
      </defs>
      <g clip-path="url(#CLIP24)">
       <g>
        <g transform="matrix(1,0,0,1,36.059234619,97.878364563)">
         <text x="-1" y="-2.110664129" class="f0">60</text>
        </g>
       </g>
      </g>
      <defs>
       <clipPath id="CLIP25">
        <path d="M48.387786865,86.741523743 L62.881523132,86.741523743 L62.881523132,98.597457886 L48.387786865,98.597457886 Z "/>
       </clipPath>
      </defs>
      <g clip-path="url(#CLIP25)">
       <g>
        <g transform="matrix(1,0,0,1,56.592247009,97.878364563)">
         <text x="-1" y="-2.110664129" class="f0">0</text>
        </g>
       </g>
      </g>
      <defs>
       <clipPath id="CLIP26">
        <path d="M63.381526947,86.741523743 L86.555847168,86.741523743 L86.555847168,98.597457886 L63.381526947,98.597457886 Z "/>
       </clipPath>
      </defs>
      <g clip-path="url(#CLIP26)">
       <g>
        <g transform="matrix(1,0,0,1,69.188018799,97.878364563)">
         <text x="-1" y="-2.110664129" class="f0">202</text>
        </g>
       </g>
      </g>
      <defs>
       <clipPath id="CLIP27">
        <path d="M87.055847168,86.741523743 L115.754180908,86.741523743 L115.754180908,98.597457886 L87.055847168,98.597457886 Z "/>
       </clipPath>
      </defs>
      <g clip-path="url(#CLIP27)">
       <g>
        <g transform="matrix(1,0,0,1,92.847068787,97.878364563)">
         <text x="-1" y="-2.110664129" class="f0">1024</text>
        </g>
       </g>
      </g>
      <defs>
       <clipPath id="CLIP28">
        <path d="M116.254180908,86.741523743 L144.952514648,86.741523743 L144.952514648,98.597457886 L116.254180908,98.597457886 Z "/>
       </clipPath>
      </defs>
      <g clip-path="url(#CLIP28)">
       <g>
        <g transform="matrix(1,0,0,1,122.045402527,97.878364563)">
         <text x="-1" y="-2.110664129" class="f0">1024</text>
        </g>
       </g>
      </g>
      <defs>
       <clipPath id="CLIP29">
        <path d="M145.452514648,86.741523743 L223.866912842,86.741523743 L223.866912842,98.597457886 L145.452514648,98.597457886 Z "/>
       </clipPath>
      </defs>
      <g clip-path="url(#CLIP29)">
       <g>
        <g transform="matrix(1,0,0,1,146.254699707,97.878364563)">
         <text x="1" y="-2.110664129" class="f0">emoji_sauropod</text>
        </g>
       </g>
      </g>
      <defs>
       <clipPath id="CLIP30">
        <path d="M224.366912842,86.741523743 L247.541229248,86.741523743 L247.541229248,98.597457886 L224.366912842,98.597457886 Z "/>
       </clipPath>
      </defs>
      <g clip-path="url(#CLIP30)">
       <g>
        <g transform="matrix(1,0,0,1,241.251953125,97.878364563)">
         <text x="-1" y="-2.110664129" class="f0">0</text>
        </g>
       </g>
      </g>
      <defs>
       <clipPath id="CLIP31">
        <path d="M285.920166016,86.741523743 L309.094482422,86.741523743 L309.094482422,98.597457886 L285.920166016,98.597457886 Z "/>
       </clipPath>
      </defs>
      <g clip-path="url(#CLIP31)">
       <g>
        <g transform="matrix(1,0,0,1,302.805206299,97.878364563)">
         <text x="-1" y="-2.110664129" class="f0">0</text>
        </g>
       </g>
      </g>
      <defs>
       <clipPath id="CLIP32">
        <path d="M309.594482422,86.741523743 L329.612243652,86.741523743 L329.612243652,98.597457886 L309.594482422,98.597457886 Z "/>
       </clipPath>
      </defs>
      <g clip-path="url(#CLIP32)">
       <g>
        <g transform="matrix(1,0,0,1,323.322937012,97.878364563)">
         <text x="-1" y="-2.110664129" class="f0">1</text>
        </g>
       </g>
      </g>
      <defs>
       <clipPath id="CLIP33">
        <path d="M330.112213135,86.741523743 L345.395080566,86.741523743 L345.395080566,98.597457886 L330.112213135,98.597457886 Z "/>
       </clipPath>
      </defs>
      <g clip-path="url(#CLIP33)">
       <g>
        <g transform="matrix(1,0,0,1,339.105804443,97.878364563)">
         <text x="-1" y="-2.110664129" class="f0">4</text>
        </g>
       </g>
      </g>
      <defs>
       <clipPath id="CLIP34">
        <path d="M345.895111084,86.741523743 L410.894073486,86.741523743 L410.894073486,98.597457886 L345.895111084,98.597457886 Z "/>
       </clipPath>
      </defs>
      <g clip-path="url(#CLIP34)">
       <g>
        <g transform="matrix(1,0,0,1,346.697296143,97.878364563)">
         <text x="1" y="-2.110664129" class="f0">base</text>
         <text x="22.597833633" y="-2.110664129" class="f0"> </text>
         <text x="25.365039825" y="-2.110664129" class="f0">3</text>
        </g>
       </g>
      </g>
      <defs>
       <clipPath id="CLIP35">
        <path d="M411.394073486,86.741523743 L446.405548096,86.741523743 L446.405548096,98.597457886 L411.394073486,98.597457886 Z "/>
       </clipPath>
      </defs>
      <g clip-path="url(#CLIP35)">
       <g>
        <g transform="matrix(1,0,0,1,434.57699585,97.878364563)">
         <text x="-1" y="-2.110664129" class="f0">23</text>
        </g>
       </g>
      </g>
      <defs>
       <clipPath id="CLIP36">
        <path d="M446.905548096,86.741523743 L462.188415527,86.741523743 L462.188415527,98.597457886 L446.905548096,98.597457886 Z "/>
       </clipPath>
      </defs>
      <g clip-path="url(#CLIP36)">
       <g>
        <g transform="matrix(1,0,0,1,455.899139404,97.878364563)">
         <text x="-1" y="-2.110664129" class="f0">1</text>
        </g>
       </g>
      </g>
      <defs>
       <clipPath id="CLIP37">
        <path d="M462.688415527,86.741523743 L477.971282959,86.741523743 L477.971282959,98.597457886 L462.688415527,98.597457886 Z "/>
       </clipPath>
      </defs>
      <g clip-path="url(#CLIP37)">
       <g>
        <g transform="matrix(1,0,0,1,471.682006836,97.878364563)">
         <text x="-1" y="-2.110664129" class="f0">1</text>
        </g>
       </g>
      </g>
      <defs>
       <clipPath id="CLIP38">
        <path d="M478.471313477,86.741523743 L490.597625732,86.741523743 L490.597625732,98.597457886 L478.471313477,98.597457886 Z "/>
       </clipPath>
      </defs>
      <g clip-path="url(#CLIP38)">
       <g>
        <g transform="matrix(1,0,0,1,484.308349609,97.878364563)">
         <text x="-1" y="-2.110664129" class="f0">0</text>
        </g>
       </g>
      </g>
     </g>
    </g>
    <defs>
     <clipPath id="CLIP39">
      <path d="M-0.5,-0.5 L491.5,-0.5 L491.5,643.5 L-0.5,643.5 Z "/>
     </clipPath>
    </defs>
    <g clip-path="url(#CLIP39)">
     <g/>
    </g>
   </g>
   <g/>
   <g/>
   <g/>
   <g>
    <g>
     <g/>
     <g shape-rendering="crispEdges"/>
     <g/>
    </g>
    <g>
     <g/>
    </g>
    <g>
     <g/>
    </g>
   </g>
  </g>
 </g>
 <defs/>
 <defs>
  <style type="text/css">.f0 { font-family: Arial; font-size: 9.96px; fill: rgb(0, 0, 0); }</style>
 </defs>
</svg>