<svg xmlns="http://www.w3.org/2000/svg" xmlns:xlink="http://www.w3.org/1999/xlink" viewBox="0 0 1024 1024" width="1024" height="1024" preserveAspectRatio="xMidYMid meet" style="width: 100%; height: 100%; transform: translate3d(0px, 0px, 0px); content-visibility: visible;"><defs><clipPath id="__lottie_element_29317"><rect width="1024" height="1024" x="0" y="0"/></clipPath></defs><g clip-path="url(#__lottie_element_29317)"><g transform="matrix(1,0,0,1,512,937.5)" opacity="1" style="display: none;"><g opacity="1" transform="matrix(1,0,0,1,0,0)"><path fill="rgb(117,198,255)" fill-opacity="1" d=" M96.16267395019531,30.463680267333984 C96.84149169921875,46.222103118896484 82.06364440917969,55.427215576171875 43.6298942565918,55.60551071166992 C8.432840347290039,55.76862335205078 -16.773000717163086,46.023895263671875 -16.30584716796875,33.93222427368164 C-15.842424392700195,21.942384719848633 1.0858800411224365,16.450576782226562 8.274456024169922,15.271240234375 C22.192184448242188,12.988759994506836 31.455303192138672,12.38267993927002 40.078704833984375,12.231023788452148 C49.66032028198242,12.062456130981445 60.74322509765625,12.04800033569336 70.3295669555664,13.517191886901855 C80.98468780517578,15.150223731994629 95.6716079711914,19.065736770629883 96.16267395019531,30.463680267333984z"/></g><g opacity="0" transform="matrix(1,0,0,1,0,0)"><path fill="rgb(255,255,255)" fill-opacity="1" d=" M-7.7179999351501465,24.05900001525879 C-35.92399978637695,25.533000946044922 -80.072998046875,29.138999938964844 -80.84100341796875,21.174999237060547 C-81.75,11.75 -51.89500045776367,15.25 -21.54800033569336,15.416000366210938 C13.218999862670898,15.605999946594238 17.341999053955078,22.75 -7.7179999351501465,24.05900001525879z"/></g><g opacity="0" transform="matrix(1,0,0,1,0,0)"><path fill="rgb(255,255,255)" fill-opacity="1" d=" M28.940000534057617,22.07699966430664 C16.165000915527344,21.729999542236328 11.942999839782715,17.07699966430664 19.389999389648438,15.713000297546387 C27.375999450683594,14.25 35.641998291015625,14.840999603271484 37.632999420166016,16.253000259399414 C39.5,17.57699966430664 39.08599853515625,22.351999282836914 28.940000534057617,22.07699966430664z"/></g></g><g transform="matrix(1,0,0,1,473.9100341796875,385.3489990234375)" opacity="1" style="display: none;"><g opacity="1" transform="matrix(1,0,0,1,96.05000305175781,304.45001220703125)"><path fill="rgb(153,194,58)" fill-opacity="1" d=" M-32.56575012207031,177.70774841308594 C-54.322750091552734,177.98350524902344 -67.1987533569336,202.67474365234375 -72.01325225830078,235.7530059814453 C-76.82775115966797,268.83123779296875 -65.71366119384766,289.57440185546875 -46.995750427246094,295.448486328125 C-29.983295440673828,300.87408447265625 -6.487988471984863,301.4468994140625 17.29537582397461,293.1521301269531 C43.22087478637695,284.26263427734375 22.4460391998291,263.6290283203125 11.263999938964844,239.21275329589844 C-1.4520000219345093,211.46749877929688 1.1795024871826172,177.48297119140625 -32.56575012207031,177.70774841308594z"/></g></g><g transform="matrix(1,0,0,1,473.9100341796875,385.3489990234375)" opacity="1" style="display: none;"><g opacity="1" transform="matrix(1,0,0,1,96.05000305175781,304.45001220703125)"><path fill="rgb(153,194,58)" fill-opacity="1" d=" M-14.673333168029785,199.11666870117188 C-36.4890022277832,202.40216064453125 -41.03353500366211,225.83331298828125 -54.400001525878906,247.69000244140625 C-67.47000122070312,269.1400146484375 -62.959999084472656,287.20001220703125 -48.119998931884766,293.20001220703125 C-31.548999786376953,299.89898681640625 -5.570666790008545,302.9403381347656 17.633333206176758,293.09332275390625 C36.813331604003906,284.9533386230469 34.537200927734375,264.5229797363281 31.856666564941406,245.2933349609375 C28.663522720336914,220.80410766601562 10.881600379943848,195.09933471679688 -14.673333168029785,199.11666870117188z"/></g></g><g transform="matrix(1,0,0,1,473.9100341796875,385.3499755859375)" opacity="1" style="display: block;"><g opacity="1" transform="matrix(1,0,0,1,96.05000305175781,304.45001220703125)"><path fill="rgb(153,194,58)" fill-opacity="1" d=" M-21.200000762939453,-251.1999969482422 C-61.959999084472656,-238.8000030517578 -39.08000183105469,-156.35899353027344 -39.08000183105469,-156.35899353027344 C-39.08000183105469,-156.35899353027344 -9,-71.23999786376953 -17.399999618530273,47.2400016784668 C-25.479999542236328,161.4010009765625 -55.79999923706055,219.16000366210938 -64.12000274658203,239.16000366210938 C-72.44000244140625,259.1600036621094 -95.80000305175781,284.20001220703125 -64.12000274658203,294.20001220703125 C-32.439998626708984,304.20001220703125 21,299.239990234375 44.36000061035156,290.8399963378906 C67.72000122070312,282.52099609375 79.31999969482422,236.1199951171875 82.76000213623047,217.4010009765625 C91.16000366210938,171.0800018310547 95.80000305175781,83.48100280761719 78.76000213623047,-2.9200000762939453 C65.72000122070312,-69.31900024414062 38.040000915527344,-183.16000366210938 38.040000915527344,-183.16000366210938 C38.040000915527344,-183.16000366210938 5.632999897003174,-259.3630065917969 -21.200000762939453,-251.1999969482422z"/></g></g><g transform="matrix(1,0,0,1,520.2890014648438,54.149993896484375)" opacity="1" style="display: block;"><g opacity="1" transform="matrix(1,0,0,1,230.66099548339844,237.57000732421875)"><path fill="rgb(153,194,58)" fill-opacity="1" d=" M-216.70899963378906,71.4800033569336 C-216.70899963378906,71.4800033569336 -182.468994140625,-35.959999084472656 -103.7490005493164,-117.4800033569336 C-28.30900001525879,-195.55999755859375 48.73099899291992,-221.16099548339844 110.49099731445312,-228.83999633789062 C178.5709991455078,-237.32000732421875 206.33099365234375,-236.44000244140625 218.01100158691406,-228.04100036621094 C229.6909942626953,-219.63999938964844 225.531005859375,-206.44000244140625 225.77099609375,-194.75999450683594 C227.29100036621094,-111.23999786376953 230.41099548339844,-3 132.17100524902344,96.04000091552734 C27.291000366210938,201.63999938964844 -47.42900085449219,220.60000610351562 -129.2689971923828,229 C-211.0290069580078,237.32000732421875 -230.41099548339844,198.18099975585938 -230.41099548339844,151.06399536132812 C-230.41099548339844,103.9469985961914 -216.70899963378906,71.4800033569336 -216.70899963378906,71.4800033569336z"/></g><g opacity="1" transform="matrix(1,0,0,1,211.7519989013672,233.00999450683594)"><path fill="rgb(230,220,159)" fill-opacity="1" d=" M-38.599998474121094,-41.720001220703125 C-113,46.43899917602539 -150.52000427246094,135.3209991455078 -154.44000244140625,158.52000427246094 C-158.36000061035156,181.72000122070312 -145.47999572753906,180.75999450683594 -138.1999969482422,170.92100524902344 C-125.08000183105469,153.16099548339844 -79.4000015258789,71.96099853515625 -11.399999618530273,-5.400000095367432 C47.47999954223633,-72.27999877929688 137.0800018310547,-144.60000610351562 150.1999969482422,-160.03900146484375 C158.36000061035156,-169.63999938964844 149.39999389648438,-181.718994140625 137.0800018310547,-176.27999877929688 C124.76000213623047,-170.91900634765625 37.47999954223633,-131.8800048828125 -38.599998474121094,-41.720001220703125z"/></g></g><g transform="matrix(1,0,0,1,20.6300048828125,204.62899780273438)" opacity="1" style="display: block;"><g opacity="1" transform="matrix(1,0,0,1,277.1000061035156,188.16000366210938)"><path fill="rgb(153,194,58)" fill-opacity="1" d=" M-273.8900146484375,-96.38899993896484 C-276.8500061035156,-81.7490005493164 -199.57000732421875,90.08999633789062 -50.290000915527344,144.17100524902344 C70.25,187.91099548339844 185.61500549316406,166.04100036621094 235.76400756835938,152.3719940185547 C252.47999572753906,147.81500244140625 273.2070007324219,123.12100219726562 275.02801513671875,101.46900177001953 C276.8500061035156,79.81800079345703 266.2770080566406,7.142000198364258 236.42999267578125,-29.589000701904297 C206.58299255371094,-66.32099914550781 135.1479949951172,-125.46199798583984 66.3499984741211,-151.27000427246094 C-26.450000762939453,-185.27000427246094 -131.3300018310547,-187.91000366210938 -202.77000427246094,-149.74899291992188 C-247.57000732421875,-125.7490005493164 -272.2900085449219,-104.1500015258789 -273.8900146484375,-96.38899993896484z"/></g><g opacity="1" transform="matrix(1,0,0,1,305.7300109863281,182.05099487304688)"><path fill="rgb(230,220,159)" fill-opacity="1" d=" M5.079999923706055,-58.68000030517578 C-103.72000122070312,-96.12000274658203 -183.32000732421875,-91.08000183105469 -199.55999755859375,-85.63999938964844 C-215.8000030517578,-80.19999694824219 -215,-62.439998626708984 -195.72000122070312,-60.119998931884766 C-176.44000244140625,-57.79999923706055 -97.80000305175781,-49.959999084472656 0.7599999904632568,-14.520000457763672 C105.95999908447266,23.399999618530273 180.9199981689453,80.5999984741211 194.1199951171875,88.36000061035156 C207.24000549316406,96.12000274658203 215.8000030517578,80.5999984741211 204.1999969482422,66.68000030517578 C195.32000732421875,56.20000076293945 125.08000183105469,-17.399999618530273 5.079999923706055,-58.68000030517578z"/></g></g></g></svg>